<mxfile host="65bd71144e">
    <diagram id="QB5Hx93XXQaKAVctpH4U" name="Página-1">
        <mxGraphModel dx="1069" dy="790" grid="1" gridSize="10" guides="1" tooltips="1" connect="1" arrows="1" fold="1" page="1" pageScale="1" pageWidth="827" pageHeight="1169" math="0" shadow="0">
            <root>
                <mxCell id="0"/>
                <mxCell id="1" parent="0"/>
                <mxCell id="bedpo7mzUVSy5MzDbfsw-1" value="&lt;span class=&quot;fontstyle0&quot; style=&quot;font-size: 15px;&quot;&gt;i)&amp;nbsp;&lt;/span&gt;&lt;span class=&quot;fontstyle0&quot;&gt;Elaborar um programa que apresen&lt;/span&gt;&lt;span style=&quot;color:rgb(22,33,61);&quot; class=&quot;fontstyle0&quot;&gt;t&lt;/span&gt;&lt;span class=&quot;fontstyle0&quot;&gt;e o valo&lt;/span&gt;&lt;span style=&quot;color:rgb(22,33,61);&quot; class=&quot;fontstyle0&quot;&gt;r &lt;/span&gt;&lt;span class=&quot;fontstyle0&quot;&gt;de uma temperatu&lt;/span&gt;&lt;span style=&quot;color:rgb(22,33,61);&quot; class=&quot;fontstyle0&quot;&gt;r&lt;/span&gt;&lt;span class=&quot;fontstyle0&quot;&gt;a em g&lt;/span&gt;&lt;span style=&quot;color:rgb(22,33,61);&quot; class=&quot;fontstyle0&quot;&gt;r&lt;/span&gt;&lt;span class=&quot;fontstyle0&quot;&gt;aus Celsius.&lt;br&gt;O programa deve ler a temperatura em graus Fahrenheit.&lt;/span&gt; " style="text;html=1;align=left;verticalAlign=middle;resizable=0;points=[];autosize=1;strokeColor=none;fillColor=none;fontSize=15;" parent="1" vertex="1">
                    <mxGeometry y="10" width="590" height="40" as="geometry"/>
                </mxCell>
                <mxCell id="bedpo7mzUVSy5MzDbfsw-2" value="" style="edgeStyle=orthogonalEdgeStyle;rounded=0;orthogonalLoop=1;jettySize=auto;html=1;fontSize=15;" parent="1" source="bedpo7mzUVSy5MzDbfsw-3" target="bedpo7mzUVSy5MzDbfsw-6" edge="1">
                    <mxGeometry relative="1" as="geometry"/>
                </mxCell>
                <mxCell id="bedpo7mzUVSy5MzDbfsw-3" value="&lt;span style=&quot;text-align: left;&quot; class=&quot;fontstyle0&quot;&gt;Ce&lt;/span&gt;&lt;span style=&quot;text-align: left; color: rgb(17, 33, 71);&quot; class=&quot;fontstyle0&quot;&gt;l&lt;/span&gt;&lt;span style=&quot;text-align: left;&quot; class=&quot;fontstyle0&quot;&gt;sius(f)&lt;/span&gt;" style="html=1;dashed=0;whitespace=wrap;shape=mxgraph.dfd.start;fontSize=15;strokeWidth=2;" parent="1" vertex="1">
                    <mxGeometry x="255" y="80" width="120" height="30" as="geometry"/>
                </mxCell>
                <mxCell id="bedpo7mzUVSy5MzDbfsw-4" value="retornar&amp;nbsp;&lt;span style=&quot;text-align: left;&quot; class=&quot;fontstyle0&quot;&gt;Ce&lt;/span&gt;&lt;span style=&quot;text-align: left; color: rgb(17, 33, 71);&quot; class=&quot;fontstyle0&quot;&gt;l&lt;/span&gt;&lt;span style=&quot;text-align: left;&quot; class=&quot;fontstyle0&quot;&gt;sius&lt;/span&gt;" style="html=1;dashed=0;whitespace=wrap;shape=mxgraph.dfd.start;fontSize=15;strokeWidth=2;" parent="1" vertex="1">
                    <mxGeometry x="250" y="210" width="130" height="30" as="geometry"/>
                </mxCell>
                <mxCell id="bedpo7mzUVSy5MzDbfsw-5" value="" style="edgeStyle=orthogonalEdgeStyle;rounded=0;orthogonalLoop=1;jettySize=auto;html=1;" parent="1" source="bedpo7mzUVSy5MzDbfsw-6" target="bedpo7mzUVSy5MzDbfsw-4" edge="1">
                    <mxGeometry relative="1" as="geometry"/>
                </mxCell>
                <mxCell id="bedpo7mzUVSy5MzDbfsw-6" value="&lt;span style=&quot;text-align: left&quot; class=&quot;fontstyle0&quot;&gt;Ce&lt;/span&gt;&lt;span style=&quot;text-align: left ; color: rgb(17 , 33 , 71)&quot; class=&quot;fontstyle0&quot;&gt;l&lt;/span&gt;&lt;span style=&quot;text-align: left&quot; class=&quot;fontstyle0&quot;&gt;sius ← 5/9 * (f-32)&lt;/span&gt;" style="rounded=1;whiteSpace=wrap;html=1;absoluteArcSize=1;arcSize=14;strokeWidth=2;fontSize=15;" parent="1" vertex="1">
                    <mxGeometry x="230" y="140" width="170" height="40" as="geometry"/>
                </mxCell>
                <mxCell id="bedpo7mzUVSy5MzDbfsw-7" value="" style="edgeStyle=orthogonalEdgeStyle;rounded=0;orthogonalLoop=1;jettySize=auto;html=1;" parent="1" source="bedpo7mzUVSy5MzDbfsw-8" target="bedpo7mzUVSy5MzDbfsw-11" edge="1">
                    <mxGeometry relative="1" as="geometry"/>
                </mxCell>
                <mxCell id="bedpo7mzUVSy5MzDbfsw-8" value="&lt;span style=&quot;text-align: left;&quot; class=&quot;fontstyle0&quot;&gt;Ce&lt;/span&gt;&lt;span style=&quot;text-align: left; color: rgb(17, 33, 71);&quot; class=&quot;fontstyle0&quot;&gt;l&lt;/span&gt;&lt;span style=&quot;text-align: left;&quot; class=&quot;fontstyle0&quot;&gt;sius(f)&lt;/span&gt;" style="strokeWidth=2;html=1;shape=mxgraph.flowchart.display;whiteSpace=wrap;fontSize=15;" parent="1" vertex="1">
                    <mxGeometry x="80" y="250" width="100" height="60" as="geometry"/>
                </mxCell>
                <mxCell id="bedpo7mzUVSy5MzDbfsw-16" value="" style="edgeStyle=orthogonalEdgeStyle;rounded=0;orthogonalLoop=1;jettySize=auto;html=1;" parent="1" source="bedpo7mzUVSy5MzDbfsw-10" target="bedpo7mzUVSy5MzDbfsw-8" edge="1">
                    <mxGeometry relative="1" as="geometry"/>
                </mxCell>
                <mxCell id="bedpo7mzUVSy5MzDbfsw-10" value="f" style="html=1;strokeWidth=2;shape=manualInput;whiteSpace=wrap;rounded=1;size=26;arcSize=11;fontSize=15;" parent="1" vertex="1">
                    <mxGeometry x="80" y="160" width="100" height="60" as="geometry"/>
                </mxCell>
                <mxCell id="bedpo7mzUVSy5MzDbfsw-11" value="fim" style="strokeWidth=2;html=1;shape=mxgraph.flowchart.start_1;whiteSpace=wrap;fontSize=15;" parent="1" vertex="1">
                    <mxGeometry x="80" y="330" width="100" height="60" as="geometry"/>
                </mxCell>
                <mxCell id="bedpo7mzUVSy5MzDbfsw-12" value="" style="edgeStyle=orthogonalEdgeStyle;rounded=0;orthogonalLoop=1;jettySize=auto;html=1;fontSize=15;" parent="1" source="bedpo7mzUVSy5MzDbfsw-13" target="bedpo7mzUVSy5MzDbfsw-10" edge="1">
                    <mxGeometry relative="1" as="geometry"/>
                </mxCell>
                <mxCell id="bedpo7mzUVSy5MzDbfsw-13" value="inicio" style="strokeWidth=2;html=1;shape=mxgraph.flowchart.start_1;whiteSpace=wrap;fontSize=15;" parent="1" vertex="1">
                    <mxGeometry x="80" y="80" width="100" height="60" as="geometry"/>
                </mxCell>
            </root>
        </mxGraphModel>
    </diagram>
</mxfile>